<svg width="225" height="47" viewBox="0 0 225 47" fill="none" xmlns="http://www.w3.org/2000/svg">
<rect x="189" y="10" width="34" height="34" stroke="#FFA300" stroke-width="4"/>
<line x1="204" y1="45" x2="204" y2="8" stroke="#FFA300" stroke-width="4"/>
<line x1="180" y1="46" x2="180" y2="9" stroke="white" stroke-width="4"/>
<line x1="204.996" y1="25.25" x2="224.503" y2="25.25" stroke="#FFA300" stroke-width="4"/>
<path d="M12.844 25.308H5.278L3.978 29H0.884L7.358 10.904H10.79L17.264 29H14.144L12.844 25.308ZM12.012 22.89L9.074 14.492L6.11 22.89H12.012ZM23.0429 9.76V29H20.0789V9.76H23.0429ZM39.9084 14.674V29H36.9444V27.31C36.4764 27.8993 35.861 28.3673 35.0984 28.714C34.353 29.0433 33.5557 29.208 32.7064 29.208C31.5797 29.208 30.5657 28.974 29.6644 28.506C28.7804 28.038 28.0784 27.3447 27.5584 26.426C27.0557 25.5073 26.8044 24.398 26.8044 23.098V14.674H29.7424V22.656C29.7424 23.9387 30.063 24.9267 30.7044 25.62C31.3457 26.296 32.221 26.634 33.3304 26.634C34.4397 26.634 35.315 26.296 35.9564 25.62C36.615 24.9267 36.9444 23.9387 36.9444 22.656V14.674H39.9084ZM46.7831 13.322V18.626H53.0231V21.044H46.7831V26.582H53.8031V29H43.8191V10.904H53.8031V13.322H46.7831ZM62.6539 29.234C61.5272 29.234 60.5132 29.0347 59.6119 28.636C58.7279 28.22 58.0259 27.6653 57.5059 26.972C56.9859 26.2613 56.7086 25.4727 56.6739 24.606H59.7419C59.7939 25.2127 60.0799 25.724 60.5999 26.14C61.1372 26.5387 61.8046 26.738 62.6019 26.738C63.4339 26.738 64.0752 26.582 64.5259 26.27C64.9939 25.9407 65.2279 25.5247 65.2279 25.022C65.2279 24.4847 64.9679 24.086 64.4479 23.826C63.9452 23.566 63.1392 23.28 62.0299 22.968C60.9552 22.6733 60.0799 22.3873 59.4039 22.11C58.7279 21.8327 58.1386 21.408 57.6359 20.836C57.1506 20.264 56.9079 19.51 56.9079 18.574C56.9079 17.8113 57.1332 17.118 57.5839 16.494C58.0346 15.8527 58.6759 15.35 59.5079 14.986C60.3572 14.622 61.3279 14.44 62.4199 14.44C64.0492 14.44 65.3579 14.856 66.3459 15.688C67.3512 16.5027 67.8886 17.6207 67.9579 19.042H64.9939C64.9419 18.4007 64.6819 17.8893 64.2139 17.508C63.7459 17.1267 63.1132 16.936 62.3159 16.936C61.5359 16.936 60.9379 17.0833 60.5219 17.378C60.1059 17.6727 59.8979 18.0627 59.8979 18.548C59.8979 18.9293 60.0366 19.25 60.3139 19.51C60.5912 19.77 60.9292 19.978 61.3279 20.134C61.7266 20.2727 62.3159 20.4547 63.0959 20.68C64.1359 20.9573 64.9852 21.2433 65.6439 21.538C66.3199 21.8153 66.9006 22.2313 67.3859 22.786C67.8712 23.3407 68.1226 24.0773 68.1399 24.996C68.1399 25.8107 67.9146 26.5387 67.4639 27.18C67.0132 27.8213 66.3719 28.324 65.5399 28.688C64.7252 29.052 63.7632 29.234 62.6539 29.234ZM74.8006 17.092V25.022C74.8006 25.5593 74.9219 25.9493 75.1646 26.192C75.4246 26.4173 75.8579 26.53 76.4646 26.53H78.2846V29H75.9446C74.6099 29 73.5872 28.688 72.8766 28.064C72.1659 27.44 71.8106 26.426 71.8106 25.022V17.092H70.1206V14.674H71.8106V11.112H74.8006V14.674H78.2846V17.092H74.8006ZM82.5244 12.776C81.9871 12.776 81.5364 12.594 81.1724 12.23C80.8084 11.866 80.6264 11.4153 80.6264 10.878C80.6264 10.3407 80.8084 9.89 81.1724 9.526C81.5364 9.162 81.9871 8.98 82.5244 8.98C83.0444 8.98 83.4864 9.162 83.8504 9.526C84.2144 9.89 84.3964 10.3407 84.3964 10.878C84.3964 11.4153 84.2144 11.866 83.8504 12.23C83.4864 12.594 83.0444 12.776 82.5244 12.776ZM83.9804 14.674V29H81.0164V14.674H83.9804ZM105.214 14.44C106.341 14.44 107.346 14.674 108.23 15.142C109.131 15.61 109.833 16.3033 110.336 17.222C110.856 18.1407 111.116 19.25 111.116 20.55V29H108.178V20.992C108.178 19.7093 107.857 18.73 107.216 18.054C106.575 17.3607 105.699 17.014 104.59 17.014C103.481 17.014 102.597 17.3607 101.938 18.054C101.297 18.73 100.976 19.7093 100.976 20.992V29H98.0379V20.992C98.0379 19.7093 97.7172 18.73 97.0759 18.054C96.4345 17.3607 95.5592 17.014 94.4499 17.014C93.3405 17.014 92.4565 17.3607 91.7979 18.054C91.1565 18.73 90.8359 19.7093 90.8359 20.992V29H87.8719V14.674H90.8359V16.312C91.3212 15.7227 91.9365 15.2633 92.6819 14.934C93.4272 14.6047 94.2245 14.44 95.0739 14.44C96.2179 14.44 97.2405 14.6827 98.1419 15.168C99.0432 15.6533 99.7365 16.3553 100.222 17.274C100.655 16.4073 101.331 15.7227 102.25 15.22C103.169 14.7 104.157 14.44 105.214 14.44ZM113.9 21.772C113.9 20.3333 114.194 19.0593 114.784 17.95C115.39 16.8407 116.205 15.9827 117.228 15.376C118.268 14.752 119.412 14.44 120.66 14.44C121.786 14.44 122.766 14.6653 123.598 15.116C124.447 15.5493 125.123 16.0953 125.626 16.754V14.674H128.616V29H125.626V26.868C125.123 27.544 124.438 28.1073 123.572 28.558C122.705 29.0087 121.717 29.234 120.608 29.234C119.377 29.234 118.25 28.922 117.228 28.298C116.205 27.6567 115.39 26.7727 114.784 25.646C114.194 24.502 113.9 23.2107 113.9 21.772ZM125.626 21.824C125.626 20.836 125.418 19.978 125.002 19.25C124.603 18.522 124.074 17.9673 123.416 17.586C122.757 17.2047 122.046 17.014 121.284 17.014C120.521 17.014 119.81 17.2047 119.152 17.586C118.493 17.95 117.956 18.496 117.54 19.224C117.141 19.9347 116.942 20.784 116.942 21.772C116.942 22.76 117.141 23.6267 117.54 24.372C117.956 25.1173 118.493 25.6893 119.152 26.088C119.828 26.4693 120.538 26.66 121.284 26.66C122.046 26.66 122.757 26.4693 123.416 26.088C124.074 25.7067 124.603 25.152 125.002 24.424C125.418 23.6787 125.626 22.812 125.626 21.824ZM135.967 17.092V25.022C135.967 25.5593 136.088 25.9493 136.331 26.192C136.591 26.4173 137.024 26.53 137.631 26.53H139.451V29H137.111C135.776 29 134.753 28.688 134.043 28.064C133.332 27.44 132.977 26.426 132.977 25.022V17.092H131.287V14.674H132.977V11.112H135.967V14.674H139.451V17.092H135.967ZM148.396 29.234C147.044 29.234 145.822 28.9307 144.73 28.324C143.638 27.7 142.78 26.8333 142.156 25.724C141.532 24.5973 141.22 23.2973 141.22 21.824C141.22 20.368 141.541 19.0767 142.182 17.95C142.824 16.8233 143.699 15.9567 144.808 15.35C145.918 14.7433 147.157 14.44 148.526 14.44C149.896 14.44 151.135 14.7433 152.244 15.35C153.354 15.9567 154.229 16.8233 154.87 17.95C155.512 19.0767 155.832 20.368 155.832 21.824C155.832 23.28 155.503 24.5713 154.844 25.698C154.186 26.8247 153.284 27.7 152.14 28.324C151.014 28.9307 149.766 29.234 148.396 29.234ZM148.396 26.66C149.159 26.66 149.87 26.478 150.528 26.114C151.204 25.75 151.75 25.204 152.166 24.476C152.582 23.748 152.79 22.864 152.79 21.824C152.79 20.784 152.591 19.9087 152.192 19.198C151.794 18.47 151.265 17.924 150.606 17.56C149.948 17.196 149.237 17.014 148.474 17.014C147.712 17.014 147.001 17.196 146.342 17.56C145.701 17.924 145.19 18.47 144.808 19.198C144.427 19.9087 144.236 20.784 144.236 21.824C144.236 23.3667 144.626 24.5627 145.406 25.412C146.204 26.244 147.2 26.66 148.396 26.66ZM161.727 16.754C162.16 16.026 162.732 15.4627 163.443 15.064C164.171 14.648 165.029 14.44 166.017 14.44V17.508H165.263C164.101 17.508 163.217 17.8027 162.611 18.392C162.021 18.9813 161.727 20.004 161.727 21.46V29H158.763V14.674H161.727V16.754Z" fill="white"/>
<path d="M1.323 39.779V41.207H3.003V41.858H1.323V43.349H3.213V44H0.525V39.128H3.213V39.779H1.323ZM5.5959 44.063C5.29257 44.063 5.01957 44.0093 4.7769 43.902C4.5389 43.79 4.3499 43.6407 4.2099 43.454C4.0699 43.2627 3.99523 43.0503 3.9859 42.817H4.8119C4.8259 42.9803 4.9029 43.118 5.0429 43.23C5.18757 43.3373 5.36723 43.391 5.5819 43.391C5.8059 43.391 5.97857 43.349 6.0999 43.265C6.2259 43.1763 6.2889 43.0643 6.2889 42.929C6.2889 42.7843 6.2189 42.677 6.0789 42.607C5.94357 42.537 5.72657 42.46 5.4279 42.376C5.13857 42.2967 4.9029 42.2197 4.7209 42.145C4.5389 42.0703 4.38023 41.956 4.2449 41.802C4.11423 41.648 4.0489 41.445 4.0489 41.193C4.0489 40.9877 4.10957 40.801 4.2309 40.633C4.35223 40.4603 4.5249 40.325 4.7489 40.227C4.97757 40.129 5.2389 40.08 5.5329 40.08C5.97157 40.08 6.3239 40.192 6.5899 40.416C6.86057 40.6353 7.00523 40.9363 7.0239 41.319H6.2259C6.2119 41.1463 6.1419 41.0087 6.0159 40.906C5.8899 40.8033 5.71957 40.752 5.5049 40.752C5.2949 40.752 5.1339 40.7917 5.0219 40.871C4.9099 40.9503 4.8539 41.0553 4.8539 41.186C4.8539 41.2887 4.89123 41.375 4.9659 41.445C5.04057 41.515 5.13157 41.571 5.2389 41.613C5.34623 41.6503 5.5049 41.6993 5.7149 41.76C5.9949 41.8347 6.22357 41.9117 6.4009 41.991C6.5829 42.0657 6.73923 42.1777 6.8699 42.327C7.00057 42.4763 7.06823 42.6747 7.0729 42.922C7.0729 43.1413 7.01223 43.3373 6.8909 43.51C6.76957 43.6827 6.5969 43.818 6.3729 43.916C6.15357 44.014 5.89457 44.063 5.5959 44.063ZM8.86616 40.794V42.929C8.86616 43.0737 8.89882 43.1787 8.96416 43.244C9.03416 43.3047 9.15082 43.335 9.31416 43.335H9.80416V44H9.17416C8.81482 44 8.53949 43.916 8.34816 43.748C8.15682 43.58 8.06116 43.307 8.06116 42.929V40.794H7.60616V40.143H8.06116V39.184H8.86616V40.143H9.80416V40.794H8.86616ZM10.9456 39.632C10.801 39.632 10.6796 39.583 10.5816 39.485C10.4836 39.387 10.4346 39.2657 10.4346 39.121C10.4346 38.9763 10.4836 38.855 10.5816 38.757C10.6796 38.659 10.801 38.61 10.9456 38.61C11.0856 38.61 11.2046 38.659 11.3026 38.757C11.4006 38.855 11.4496 38.9763 11.4496 39.121C11.4496 39.2657 11.4006 39.387 11.3026 39.485C11.2046 39.583 11.0856 39.632 10.9456 39.632ZM11.3376 40.143V44H10.5396V40.143H11.3376ZM17.0544 40.08C17.3577 40.08 17.6284 40.143 17.8664 40.269C18.109 40.395 18.298 40.5817 18.4334 40.829C18.5734 41.0763 18.6434 41.375 18.6434 41.725V44H17.8524V41.844C17.8524 41.4987 17.766 41.235 17.5934 41.053C17.4207 40.8663 17.185 40.773 16.8864 40.773C16.5877 40.773 16.3497 40.8663 16.1724 41.053C15.9997 41.235 15.9134 41.4987 15.9134 41.844V44H15.1224V41.844C15.1224 41.4987 15.036 41.235 14.8634 41.053C14.6907 40.8663 14.455 40.773 14.1564 40.773C13.8577 40.773 13.6197 40.8663 13.4424 41.053C13.2697 41.235 13.1834 41.4987 13.1834 41.844V44H12.3854V40.143H13.1834V40.584C13.314 40.4253 13.4797 40.3017 13.6804 40.213C13.881 40.1243 14.0957 40.08 14.3244 40.08C14.6324 40.08 14.9077 40.1453 15.1504 40.276C15.393 40.4067 15.5797 40.5957 15.7104 40.843C15.827 40.6097 16.009 40.4253 16.2564 40.29C16.5037 40.15 16.7697 40.08 17.0544 40.08ZM19.3928 42.054C19.3928 41.6667 19.4721 41.3237 19.6308 41.025C19.7941 40.7263 20.0135 40.4953 20.2888 40.332C20.5688 40.164 20.8768 40.08 21.2128 40.08C21.5161 40.08 21.7798 40.1407 22.0038 40.262C22.2325 40.3787 22.4145 40.5257 22.5498 40.703V40.143H23.3548V44H22.5498V43.426C22.4145 43.608 22.2301 43.7597 21.9968 43.881C21.7635 44.0023 21.4975 44.063 21.1988 44.063C20.8675 44.063 20.5641 43.979 20.2888 43.811C20.0135 43.6383 19.7941 43.4003 19.6308 43.097C19.4721 42.789 19.3928 42.4413 19.3928 42.054ZM22.5498 42.068C22.5498 41.802 22.4938 41.571 22.3818 41.375C22.2745 41.179 22.1321 41.0297 21.9548 40.927C21.7775 40.8243 21.5861 40.773 21.3808 40.773C21.1755 40.773 20.9841 40.8243 20.8068 40.927C20.6295 41.025 20.4848 41.172 20.3728 41.368C20.2655 41.5593 20.2118 41.788 20.2118 42.054C20.2118 42.32 20.2655 42.5533 20.3728 42.754C20.4848 42.9547 20.6295 43.1087 20.8068 43.216C20.9888 43.3187 21.1801 43.37 21.3808 43.37C21.5861 43.37 21.7775 43.3187 21.9548 43.216C22.1321 43.1133 22.2745 42.964 22.3818 42.768C22.4938 42.5673 22.5498 42.334 22.5498 42.068ZM25.3339 40.794V42.929C25.3339 43.0737 25.3666 43.1787 25.4319 43.244C25.5019 43.3047 25.6186 43.335 25.7819 43.335H26.2719V44H25.6419C25.2826 44 25.0073 43.916 24.8159 43.748C24.6246 43.58 24.5289 43.307 24.5289 42.929V40.794H24.0739V40.143H24.5289V39.184H25.3339V40.143H26.2719V40.794H25.3339ZM30.5424 41.977C30.5424 42.1217 30.5331 42.2523 30.5144 42.369H27.5674C27.5908 42.677 27.7051 42.9243 27.9104 43.111C28.1158 43.2977 28.3678 43.391 28.6664 43.391C29.0958 43.391 29.3991 43.2113 29.5764 42.852H30.4374C30.3208 43.2067 30.1084 43.4983 29.8004 43.727C29.4971 43.951 29.1191 44.063 28.6664 44.063C28.2978 44.063 27.9664 43.9813 27.6724 43.818C27.3831 43.65 27.1544 43.4167 26.9864 43.118C26.8231 42.8147 26.7414 42.4647 26.7414 42.068C26.7414 41.6713 26.8208 41.3237 26.9794 41.025C27.1428 40.7217 27.3691 40.4883 27.6584 40.325C27.9524 40.1617 28.2884 40.08 28.6664 40.08C29.0304 40.08 29.3548 40.1593 29.6394 40.318C29.9241 40.4767 30.1458 40.7007 30.3044 40.99C30.4631 41.2747 30.5424 41.6037 30.5424 41.977ZM29.7094 41.725C29.7048 41.431 29.5998 41.1953 29.3944 41.018C29.1891 40.8407 28.9348 40.752 28.6314 40.752C28.3561 40.752 28.1204 40.8407 27.9244 41.018C27.7284 41.1907 27.6118 41.4263 27.5744 41.725H29.7094ZM36.6181 40.143L34.2521 45.813H33.4261L34.2101 43.937L32.6911 40.143H33.5801L34.6651 43.083L35.7921 40.143H36.6181ZM38.8933 44.063C38.5293 44.063 38.2003 43.9813 37.9063 43.818C37.6123 43.65 37.3813 43.4167 37.2133 43.118C37.0453 42.8147 36.9613 42.4647 36.9613 42.068C36.9613 41.676 37.0476 41.3283 37.2203 41.025C37.393 40.7217 37.6286 40.4883 37.9273 40.325C38.226 40.1617 38.5596 40.08 38.9283 40.08C39.297 40.08 39.6306 40.1617 39.9293 40.325C40.228 40.4883 40.4636 40.7217 40.6363 41.025C40.809 41.3283 40.8953 41.676 40.8953 42.068C40.8953 42.46 40.8066 42.8077 40.6293 43.111C40.452 43.4143 40.2093 43.65 39.9013 43.818C39.598 43.9813 39.262 44.063 38.8933 44.063ZM38.8933 43.37C39.0986 43.37 39.29 43.321 39.4673 43.223C39.6493 43.125 39.7963 42.978 39.9083 42.782C40.0203 42.586 40.0763 42.348 40.0763 42.068C40.0763 41.788 40.0226 41.5523 39.9153 41.361C39.808 41.165 39.6656 41.018 39.4883 40.92C39.311 40.822 39.1196 40.773 38.9143 40.773C38.709 40.773 38.5176 40.822 38.3403 40.92C38.1676 41.018 38.03 41.165 37.9273 41.361C37.8246 41.5523 37.7733 41.788 37.7733 42.068C37.7733 42.4833 37.8783 42.8053 38.0883 43.034C38.303 43.258 38.5713 43.37 38.8933 43.37ZM45.1772 40.143V44H44.3792V43.545C44.2532 43.7037 44.0875 43.8297 43.8822 43.923C43.6815 44.0117 43.4668 44.056 43.2382 44.056C42.9348 44.056 42.6618 43.993 42.4192 43.867C42.1812 43.741 41.9922 43.5543 41.8522 43.307C41.7168 43.0597 41.6492 42.761 41.6492 42.411V40.143H42.4402V42.292C42.4402 42.6373 42.5265 42.9033 42.6992 43.09C42.8718 43.272 43.1075 43.363 43.4062 43.363C43.7048 43.363 43.9405 43.272 44.1132 43.09C44.2905 42.9033 44.3792 42.6373 44.3792 42.292V40.143H45.1772ZM47.0281 40.703C47.1447 40.507 47.2987 40.3553 47.4901 40.248C47.6861 40.136 47.9171 40.08 48.1831 40.08V40.906H47.9801C47.6674 40.906 47.4294 40.9853 47.2661 41.144C47.1074 41.3027 47.0281 41.578 47.0281 41.97V44H46.2301V40.143H47.0281V40.703ZM51.533 40.71C51.6683 40.5327 51.8526 40.3833 52.086 40.262C52.3193 40.1407 52.583 40.08 52.877 40.08C53.213 40.08 53.5186 40.164 53.794 40.332C54.074 40.4953 54.2933 40.7263 54.452 41.025C54.6106 41.3237 54.69 41.6667 54.69 42.054C54.69 42.4413 54.6106 42.789 54.452 43.097C54.2933 43.4003 54.074 43.6383 53.794 43.811C53.5186 43.979 53.213 44.063 52.877 44.063C52.583 44.063 52.3216 44.0047 52.093 43.888C51.8643 43.7667 51.6776 43.6173 51.533 43.44V45.834H50.735V40.143H51.533V40.71ZM53.878 42.054C53.878 41.788 53.822 41.5593 53.71 41.368C53.6026 41.172 53.458 41.025 53.276 40.927C53.0986 40.8243 52.9073 40.773 52.702 40.773C52.5013 40.773 52.31 40.8243 52.128 40.927C51.9506 41.0297 51.806 41.179 51.694 41.375C51.5866 41.571 51.533 41.802 51.533 42.068C51.533 42.334 51.5866 42.5673 51.694 42.768C51.806 42.964 51.9506 43.1133 52.128 43.216C52.31 43.3187 52.5013 43.37 52.702 43.37C52.9073 43.37 53.0986 43.3187 53.276 43.216C53.458 43.1087 53.6026 42.9547 53.71 42.754C53.822 42.5533 53.878 42.32 53.878 42.054ZM56.2771 40.703C56.3938 40.507 56.5478 40.3553 56.7391 40.248C56.9351 40.136 57.1661 40.08 57.4321 40.08V40.906H57.2291C56.9164 40.906 56.6784 40.9853 56.5151 41.144C56.3564 41.3027 56.2771 41.578 56.2771 41.97V44H55.4791V40.143H56.2771V40.703ZM59.8386 44.063C59.4746 44.063 59.1456 43.9813 58.8516 43.818C58.5576 43.65 58.3266 43.4167 58.1586 43.118C57.9906 42.8147 57.9066 42.4647 57.9066 42.068C57.9066 41.676 57.993 41.3283 58.1656 41.025C58.3383 40.7217 58.574 40.4883 58.8726 40.325C59.1713 40.1617 59.505 40.08 59.8736 40.08C60.2423 40.08 60.576 40.1617 60.8746 40.325C61.1733 40.4883 61.409 40.7217 61.5816 41.025C61.7543 41.3283 61.8406 41.676 61.8406 42.068C61.8406 42.46 61.752 42.8077 61.5746 43.111C61.3973 43.4143 61.1546 43.65 60.8466 43.818C60.5433 43.9813 60.2073 44.063 59.8386 44.063ZM59.8386 43.37C60.044 43.37 60.2353 43.321 60.4126 43.223C60.5946 43.125 60.7416 42.978 60.8536 42.782C60.9656 42.586 61.0216 42.348 61.0216 42.068C61.0216 41.788 60.968 41.5523 60.8606 41.361C60.7533 41.165 60.611 41.018 60.4336 40.92C60.2563 40.822 60.065 40.773 59.8596 40.773C59.6543 40.773 59.463 40.822 59.2856 40.92C59.113 41.018 58.9753 41.165 58.8726 41.361C58.77 41.5523 58.7186 41.788 58.7186 42.068C58.7186 42.4833 58.8236 42.8053 59.0336 43.034C59.2483 43.258 59.5166 43.37 59.8386 43.37ZM63.0355 39.632C62.8908 39.632 62.7695 39.583 62.6715 39.485C62.5735 39.387 62.5245 39.2657 62.5245 39.121C62.5245 38.9763 62.5735 38.855 62.6715 38.757C62.7695 38.659 62.8908 38.61 63.0355 38.61C63.1755 38.61 63.2945 38.659 63.3925 38.757C63.4905 38.855 63.5395 38.9763 63.5395 39.121C63.5395 39.2657 63.4905 39.387 63.3925 39.485C63.2945 39.583 63.1755 39.632 63.0355 39.632ZM63.4275 44.756C63.4275 45.134 63.3318 45.407 63.1405 45.575C62.9538 45.7477 62.6808 45.834 62.3215 45.834H61.9085V45.162H62.1815C62.3448 45.162 62.4592 45.1293 62.5245 45.064C62.5945 45.0033 62.6295 44.9007 62.6295 44.756V40.143H63.4275V44.756ZM68.0102 41.977C68.0102 42.1217 68.0009 42.2523 67.9822 42.369H65.0352C65.0585 42.677 65.1729 42.9243 65.3782 43.111C65.5835 43.2977 65.8355 43.391 66.1342 43.391C66.5635 43.391 66.8669 43.2113 67.0442 42.852H67.9052C67.7885 43.2067 67.5762 43.4983 67.2682 43.727C66.9649 43.951 66.5869 44.063 66.1342 44.063C65.7655 44.063 65.4342 43.9813 65.1402 43.818C64.8509 43.65 64.6222 43.4167 64.4542 43.118C64.2909 42.8147 64.2092 42.4647 64.2092 42.068C64.2092 41.6713 64.2885 41.3237 64.4472 41.025C64.6105 40.7217 64.8369 40.4883 65.1262 40.325C65.4202 40.1617 65.7562 40.08 66.1342 40.08C66.4982 40.08 66.8225 40.1593 67.1072 40.318C67.3919 40.4767 67.6135 40.7007 67.7722 40.99C67.9309 41.2747 68.0102 41.6037 68.0102 41.977ZM67.1772 41.725C67.1725 41.431 67.0675 41.1953 66.8622 41.018C66.6569 40.8407 66.4025 40.752 66.0992 40.752C65.8239 40.752 65.5882 40.8407 65.3922 41.018C65.1962 41.1907 65.0795 41.4263 65.0422 41.725H67.1772ZM68.5295 42.068C68.5295 41.6713 68.6088 41.3237 68.7675 41.025C68.9308 40.7217 69.1548 40.4883 69.4395 40.325C69.7242 40.1617 70.0508 40.08 70.4195 40.08C70.8862 40.08 71.2712 40.192 71.5745 40.416C71.8825 40.6353 72.0902 40.9503 72.1975 41.361H71.3365C71.2665 41.1697 71.1545 41.0203 71.0005 40.913C70.8465 40.8057 70.6528 40.752 70.4195 40.752C70.0928 40.752 69.8315 40.8687 69.6355 41.102C69.4442 41.3307 69.3485 41.6527 69.3485 42.068C69.3485 42.4833 69.4442 42.8077 69.6355 43.041C69.8315 43.2743 70.0928 43.391 70.4195 43.391C70.8815 43.391 71.1872 43.188 71.3365 42.782H72.1975C72.0855 43.174 71.8755 43.4867 71.5675 43.72C71.2595 43.9487 70.8768 44.063 70.4195 44.063C70.0508 44.063 69.7242 43.9813 69.4395 43.818C69.1548 43.65 68.9308 43.4167 68.7675 43.118C68.6088 42.8147 68.5295 42.4647 68.5295 42.068ZM73.9238 40.794V42.929C73.9238 43.0737 73.9564 43.1787 74.0218 43.244C74.0918 43.3047 74.2084 43.335 74.3718 43.335H74.8618V44H74.2318C73.8724 44 73.5971 43.916 73.4058 43.748C73.2144 43.58 73.1188 43.307 73.1188 42.929V40.794H72.6638V40.143H73.1188V39.184H73.9238V40.143H74.8618V40.794H73.9238ZM82.5956 40.143L81.3986 44H80.5586L79.7816 41.151L79.0046 44H78.1646L76.9606 40.143H77.7726L78.5776 43.244L79.3966 40.143H80.2296L81.0136 43.23L81.8116 40.143H82.5956ZM83.598 39.632C83.4533 39.632 83.332 39.583 83.234 39.485C83.136 39.387 83.087 39.2657 83.087 39.121C83.087 38.9763 83.136 38.855 83.234 38.757C83.332 38.659 83.4533 38.61 83.598 38.61C83.738 38.61 83.857 38.659 83.955 38.757C84.053 38.855 84.102 38.9763 84.102 39.121C84.102 39.2657 84.053 39.387 83.955 39.485C83.857 39.583 83.738 39.632 83.598 39.632ZM83.99 40.143V44H83.192V40.143H83.99ZM85.9687 40.794V42.929C85.9687 43.0737 86.0014 43.1787 86.0667 43.244C86.1367 43.3047 86.2534 43.335 86.4167 43.335H86.9067V44H86.2767C85.9174 44 85.642 43.916 85.4507 43.748C85.2594 43.58 85.1637 43.307 85.1637 42.929V40.794H84.7087V40.143H85.1637V39.184H85.9687V40.143H86.9067V40.794H85.9687ZM89.6372 40.08C89.9312 40.08 90.1925 40.143 90.4212 40.269C90.6545 40.395 90.8365 40.5817 90.9672 40.829C91.1025 41.0763 91.1702 41.375 91.1702 41.725V44H90.3792V41.844C90.3792 41.4987 90.2929 41.235 90.1202 41.053C89.9475 40.8663 89.7119 40.773 89.4132 40.773C89.1145 40.773 88.8765 40.8663 88.6992 41.053C88.5265 41.235 88.4402 41.4987 88.4402 41.844V44H87.6422V38.82H88.4402V40.591C88.5755 40.4277 88.7459 40.3017 88.9512 40.213C89.1612 40.1243 89.3899 40.08 89.6372 40.08ZM95.6794 44.063C95.3154 44.063 94.9864 43.9813 94.6924 43.818C94.3984 43.65 94.1674 43.4167 93.9994 43.118C93.8314 42.8147 93.7474 42.4647 93.7474 42.068C93.7474 41.676 93.8338 41.3283 94.0064 41.025C94.1791 40.7217 94.4148 40.4883 94.7134 40.325C95.0121 40.1617 95.3458 40.08 95.7144 40.08C96.0831 40.08 96.4168 40.1617 96.7154 40.325C97.0141 40.4883 97.2498 40.7217 97.4224 41.025C97.5951 41.3283 97.6814 41.676 97.6814 42.068C97.6814 42.46 97.5928 42.8077 97.4154 43.111C97.2381 43.4143 96.9954 43.65 96.6874 43.818C96.3841 43.9813 96.0481 44.063 95.6794 44.063ZM95.6794 43.37C95.8848 43.37 96.0761 43.321 96.2534 43.223C96.4354 43.125 96.5824 42.978 96.6944 42.782C96.8064 42.586 96.8624 42.348 96.8624 42.068C96.8624 41.788 96.8088 41.5523 96.7014 41.361C96.5941 41.165 96.4518 41.018 96.2744 40.92C96.0971 40.822 95.9058 40.773 95.7004 40.773C95.4951 40.773 95.3038 40.822 95.1264 40.92C94.9538 41.018 94.8161 41.165 94.7134 41.361C94.6108 41.5523 94.5594 41.788 94.5594 42.068C94.5594 42.4833 94.6644 42.8053 94.8744 43.034C95.0891 43.258 95.3574 43.37 95.6794 43.37ZM101.963 40.143V44H101.165V43.545C101.039 43.7037 100.874 43.8297 100.668 43.923C100.468 44.0117 100.253 44.056 100.024 44.056C99.721 44.056 99.448 43.993 99.2053 43.867C98.9673 43.741 98.7783 43.5543 98.6383 43.307C98.503 43.0597 98.4353 42.761 98.4353 42.411V40.143H99.2263V42.292C99.2263 42.6373 99.3126 42.9033 99.4853 43.09C99.658 43.272 99.8936 43.363 100.192 43.363C100.491 43.363 100.727 43.272 100.899 43.09C101.077 42.9033 101.165 42.6373 101.165 42.292V40.143H101.963ZM103.814 40.703C103.931 40.507 104.085 40.3553 104.276 40.248C104.472 40.136 104.703 40.08 104.969 40.08V40.906H104.766C104.454 40.906 104.216 40.9853 104.052 41.144C103.894 41.3027 103.814 41.578 103.814 41.97V44H103.016V40.143H103.814V40.703ZM110.454 43.006H108.417L108.067 44H107.234L108.977 39.128H109.901L111.644 44H110.804L110.454 43.006ZM110.23 42.355L109.439 40.094L108.641 42.355H110.23ZM113.2 38.82V44H112.402V38.82H113.2ZM117.741 40.143V44H116.943V43.545C116.817 43.7037 116.651 43.8297 116.446 43.923C116.245 44.0117 116.03 44.056 115.802 44.056C115.498 44.056 115.225 43.993 114.983 43.867C114.745 43.741 114.556 43.5543 114.416 43.307C114.28 43.0597 114.213 42.761 114.213 42.411V40.143H115.004V42.292C115.004 42.6373 115.09 42.9033 115.263 43.09C115.435 43.272 115.671 43.363 115.97 43.363C116.268 43.363 116.504 43.272 116.677 43.09C116.854 42.9033 116.943 42.6373 116.943 42.292V40.143H117.741ZM119.592 39.779V41.207H121.272V41.858H119.592V43.349H121.482V44H118.794V39.128H121.482V39.779H119.592ZM123.864 44.063C123.561 44.063 123.288 44.0093 123.045 43.902C122.807 43.79 122.618 43.6407 122.478 43.454C122.338 43.2627 122.264 43.0503 122.254 42.817H123.08C123.094 42.9803 123.171 43.118 123.311 43.23C123.456 43.3373 123.636 43.391 123.85 43.391C124.074 43.391 124.247 43.349 124.368 43.265C124.494 43.1763 124.557 43.0643 124.557 42.929C124.557 42.7843 124.487 42.677 124.347 42.607C124.212 42.537 123.995 42.46 123.696 42.376C123.407 42.2967 123.171 42.2197 122.989 42.145C122.807 42.0703 122.649 41.956 122.513 41.802C122.383 41.648 122.317 41.445 122.317 41.193C122.317 40.9877 122.378 40.801 122.499 40.633C122.621 40.4603 122.793 40.325 123.017 40.227C123.246 40.129 123.507 40.08 123.801 40.08C124.24 40.08 124.592 40.192 124.858 40.416C125.129 40.6353 125.274 40.9363 125.292 41.319H124.494C124.48 41.1463 124.41 41.0087 124.284 40.906C124.158 40.8033 123.988 40.752 123.773 40.752C123.563 40.752 123.402 40.7917 123.29 40.871C123.178 40.9503 123.122 41.0553 123.122 41.186C123.122 41.2887 123.16 41.375 123.234 41.445C123.309 41.515 123.4 41.571 123.507 41.613C123.615 41.6503 123.773 41.6993 123.983 41.76C124.263 41.8347 124.492 41.9117 124.669 41.991C124.851 42.0657 125.008 42.1777 125.138 42.327C125.269 42.4763 125.337 42.6747 125.341 42.922C125.341 43.1413 125.281 43.3373 125.159 43.51C125.038 43.6827 124.865 43.818 124.641 43.916C124.422 44.014 124.163 44.063 123.864 44.063ZM127.135 40.794V42.929C127.135 43.0737 127.167 43.1787 127.233 43.244C127.303 43.3047 127.419 43.335 127.583 43.335H128.073V44H127.443C127.083 44 126.808 43.916 126.617 43.748C126.425 43.58 126.33 43.307 126.33 42.929V40.794H125.875V40.143H126.33V39.184H127.135V40.143H128.073V40.794H127.135ZM129.214 39.632C129.07 39.632 128.948 39.583 128.85 39.485C128.752 39.387 128.703 39.2657 128.703 39.121C128.703 38.9763 128.752 38.855 128.85 38.757C128.948 38.659 129.07 38.61 129.214 38.61C129.354 38.61 129.473 38.659 129.571 38.757C129.669 38.855 129.718 38.9763 129.718 39.121C129.718 39.2657 129.669 39.387 129.571 39.485C129.473 39.583 129.354 39.632 129.214 39.632ZM129.606 40.143V44H128.808V40.143H129.606ZM135.323 40.08C135.626 40.08 135.897 40.143 136.135 40.269C136.378 40.395 136.567 40.5817 136.702 40.829C136.842 41.0763 136.912 41.375 136.912 41.725V44H136.121V41.844C136.121 41.4987 136.035 41.235 135.862 41.053C135.689 40.8663 135.454 40.773 135.155 40.773C134.856 40.773 134.618 40.8663 134.441 41.053C134.268 41.235 134.182 41.4987 134.182 41.844V44H133.391V41.844C133.391 41.4987 133.305 41.235 133.132 41.053C132.959 40.8663 132.724 40.773 132.425 40.773C132.126 40.773 131.888 40.8663 131.711 41.053C131.538 41.235 131.452 41.4987 131.452 41.844V44H130.654V40.143H131.452V40.584C131.583 40.4253 131.748 40.3017 131.949 40.213C132.15 40.1243 132.364 40.08 132.593 40.08C132.901 40.08 133.176 40.1453 133.419 40.276C133.662 40.4067 133.848 40.5957 133.979 40.843C134.096 40.6097 134.278 40.4253 134.525 40.29C134.772 40.15 135.038 40.08 135.323 40.08ZM137.661 42.054C137.661 41.6667 137.741 41.3237 137.899 41.025C138.063 40.7263 138.282 40.4953 138.557 40.332C138.837 40.164 139.145 40.08 139.481 40.08C139.785 40.08 140.048 40.1407 140.272 40.262C140.501 40.3787 140.683 40.5257 140.818 40.703V40.143H141.623V44H140.818V43.426C140.683 43.608 140.499 43.7597 140.265 43.881C140.032 44.0023 139.766 44.063 139.467 44.063C139.136 44.063 138.833 43.979 138.557 43.811C138.282 43.6383 138.063 43.4003 137.899 43.097C137.741 42.789 137.661 42.4413 137.661 42.054ZM140.818 42.068C140.818 41.802 140.762 41.571 140.65 41.375C140.543 41.179 140.401 41.0297 140.223 40.927C140.046 40.8243 139.855 40.773 139.649 40.773C139.444 40.773 139.253 40.8243 139.075 40.927C138.898 41.025 138.753 41.172 138.641 41.368C138.534 41.5593 138.48 41.788 138.48 42.054C138.48 42.32 138.534 42.5533 138.641 42.754C138.753 42.9547 138.898 43.1087 139.075 43.216C139.257 43.3187 139.449 43.37 139.649 43.37C139.855 43.37 140.046 43.3187 140.223 43.216C140.401 43.1133 140.543 42.964 140.65 42.768C140.762 42.5673 140.818 42.334 140.818 42.068ZM143.602 40.794V42.929C143.602 43.0737 143.635 43.1787 143.7 43.244C143.77 43.3047 143.887 43.335 144.05 43.335H144.54V44H143.91C143.551 44 143.276 43.916 143.084 43.748C142.893 43.58 142.797 43.307 142.797 42.929V40.794H142.342V40.143H142.797V39.184H143.602V40.143H144.54V40.794H143.602ZM146.949 44.063C146.585 44.063 146.256 43.9813 145.962 43.818C145.668 43.65 145.437 43.4167 145.269 43.118C145.101 42.8147 145.017 42.4647 145.017 42.068C145.017 41.676 145.103 41.3283 145.276 41.025C145.449 40.7217 145.684 40.4883 145.983 40.325C146.282 40.1617 146.615 40.08 146.984 40.08C147.353 40.08 147.686 40.1617 147.985 40.325C148.284 40.4883 148.519 40.7217 148.692 41.025C148.865 41.3283 148.951 41.676 148.951 42.068C148.951 42.46 148.862 42.8077 148.685 43.111C148.508 43.4143 148.265 43.65 147.957 43.818C147.654 43.9813 147.318 44.063 146.949 44.063ZM146.949 43.37C147.154 43.37 147.346 43.321 147.523 43.223C147.705 43.125 147.852 42.978 147.964 42.782C148.076 42.586 148.132 42.348 148.132 42.068C148.132 41.788 148.078 41.5523 147.971 41.361C147.864 41.165 147.721 41.018 147.544 40.92C147.367 40.822 147.175 40.773 146.97 40.773C146.765 40.773 146.573 40.822 146.396 40.92C146.223 41.018 146.086 41.165 145.983 41.361C145.88 41.5523 145.829 41.788 145.829 42.068C145.829 42.4833 145.934 42.8053 146.144 43.034C146.359 43.258 146.627 43.37 146.949 43.37ZM150.538 40.703C150.655 40.507 150.809 40.3553 151 40.248C151.196 40.136 151.427 40.08 151.693 40.08V40.906H151.49C151.177 40.906 150.939 40.9853 150.776 41.144C150.617 41.3027 150.538 41.578 150.538 41.97V44H149.74V40.143H150.538V40.703ZM155.645 44.063C155.341 44.063 155.068 44.0093 154.826 43.902C154.588 43.79 154.399 43.6407 154.259 43.454C154.119 43.2627 154.044 43.0503 154.035 42.817H154.861C154.875 42.9803 154.952 43.118 155.092 43.23C155.236 43.3373 155.416 43.391 155.631 43.391C155.855 43.391 156.027 43.349 156.149 43.265C156.275 43.1763 156.338 43.0643 156.338 42.929C156.338 42.7843 156.268 42.677 156.128 42.607C155.992 42.537 155.775 42.46 155.477 42.376C155.187 42.2967 154.952 42.2197 154.77 42.145C154.588 42.0703 154.429 41.956 154.294 41.802C154.163 41.648 154.098 41.445 154.098 41.193C154.098 40.9877 154.158 40.801 154.28 40.633C154.401 40.4603 154.574 40.325 154.798 40.227C155.026 40.129 155.288 40.08 155.582 40.08C156.02 40.08 156.373 40.192 156.639 40.416C156.909 40.6353 157.054 40.9363 157.073 41.319H156.275C156.261 41.1463 156.191 41.0087 156.065 40.906C155.939 40.8033 155.768 40.752 155.554 40.752C155.344 40.752 155.183 40.7917 155.071 40.871C154.959 40.9503 154.903 41.0553 154.903 41.186C154.903 41.2887 154.94 41.375 155.015 41.445C155.089 41.515 155.18 41.571 155.288 41.613C155.395 41.6503 155.554 41.6993 155.764 41.76C156.044 41.8347 156.272 41.9117 156.45 41.991C156.632 42.0657 156.788 42.1777 156.919 42.327C157.049 42.4763 157.117 42.6747 157.122 42.922C157.122 43.1413 157.061 43.3373 156.94 43.51C156.818 43.6827 156.646 43.818 156.422 43.916C156.202 44.014 155.943 44.063 155.645 44.063ZM158.782 40.71C158.917 40.5327 159.102 40.3833 159.335 40.262C159.568 40.1407 159.832 40.08 160.126 40.08C160.462 40.08 160.768 40.164 161.043 40.332C161.323 40.4953 161.542 40.7263 161.701 41.025C161.86 41.3237 161.939 41.6667 161.939 42.054C161.939 42.4413 161.86 42.789 161.701 43.097C161.542 43.4003 161.323 43.6383 161.043 43.811C160.768 43.979 160.462 44.063 160.126 44.063C159.832 44.063 159.571 44.0047 159.342 43.888C159.113 43.7667 158.927 43.6173 158.782 43.44V45.834H157.984V40.143H158.782V40.71ZM161.127 42.054C161.127 41.788 161.071 41.5593 160.959 41.368C160.852 41.172 160.707 41.025 160.525 40.927C160.348 40.8243 160.156 40.773 159.951 40.773C159.75 40.773 159.559 40.8243 159.377 40.927C159.2 41.0297 159.055 41.179 158.943 41.375C158.836 41.571 158.782 41.802 158.782 42.068C158.782 42.334 158.836 42.5673 158.943 42.768C159.055 42.964 159.2 43.1133 159.377 43.216C159.559 43.3187 159.75 43.37 159.951 43.37C160.156 43.37 160.348 43.3187 160.525 43.216C160.707 43.1087 160.852 42.9547 160.959 42.754C161.071 42.5533 161.127 42.32 161.127 42.054ZM162.462 42.054C162.462 41.6667 162.541 41.3237 162.7 41.025C162.863 40.7263 163.083 40.4953 163.358 40.332C163.638 40.164 163.946 40.08 164.282 40.08C164.585 40.08 164.849 40.1407 165.073 40.262C165.302 40.3787 165.484 40.5257 165.619 40.703V40.143H166.424V44H165.619V43.426C165.484 43.608 165.299 43.7597 165.066 43.881C164.833 44.0023 164.567 44.063 164.268 44.063C163.937 44.063 163.633 43.979 163.358 43.811C163.083 43.6383 162.863 43.4003 162.7 43.097C162.541 42.789 162.462 42.4413 162.462 42.054ZM165.619 42.068C165.619 41.802 165.563 41.571 165.451 41.375C165.344 41.179 165.201 41.0297 165.024 40.927C164.847 40.8243 164.655 40.773 164.45 40.773C164.245 40.773 164.053 40.8243 163.876 40.927C163.699 41.025 163.554 41.172 163.442 41.368C163.335 41.5593 163.281 41.788 163.281 42.054C163.281 42.32 163.335 42.5533 163.442 42.754C163.554 42.9547 163.699 43.1087 163.876 43.216C164.058 43.3187 164.249 43.37 164.45 43.37C164.655 43.37 164.847 43.3187 165.024 43.216C165.201 43.1133 165.344 42.964 165.451 42.768C165.563 42.5673 165.619 42.334 165.619 42.068ZM168.27 40.703C168.387 40.507 168.541 40.3553 168.732 40.248C168.928 40.136 169.159 40.08 169.425 40.08V40.906H169.222C168.91 40.906 168.672 40.9853 168.508 41.144C168.35 41.3027 168.27 41.578 168.27 41.97V44H167.472V40.143H168.27V40.703ZM171.685 42.075L173.463 44H172.385L170.957 42.341V44H170.159V38.82H170.957V41.83L172.357 40.143H173.463L171.685 42.075Z" fill="#FFA300"/>
</svg>
